<svg width="24" height="24" viewBox="0 0 24 24" fill="none" xmlns="http://www.w3.org/2000/svg">
<g clip-path="url(#clip0_191_51)">
<path d="M12.0036 7.95732C9.73213 7.95732 7.89999 9.76084 7.89999 11.9968C7.89999 14.2327 9.73213 16.0362 12.0036 16.0362C14.275 16.0362 16.1071 14.2327 16.1071 11.9968C16.1071 9.76084 14.275 7.95732 12.0036 7.95732ZM12.0036 14.6229C10.5357 14.6229 9.3357 13.4452 9.3357 11.9968C9.3357 10.5483 10.5321 9.3706 12.0036 9.3706C13.475 9.3706 14.6714 10.5483 14.6714 11.9968C14.6714 13.4452 13.4714 14.6229 12.0036 14.6229ZM17.2321 7.79209C17.2321 8.31592 16.8036 8.73428 16.275 8.73428C15.7428 8.73428 15.3178 8.3124 15.3178 7.79209C15.3178 7.27178 15.7464 6.8499 16.275 6.8499C16.8036 6.8499 17.2321 7.27178 17.2321 7.79209ZM19.95 8.74834C19.8893 7.48623 19.5964 6.36826 18.6571 5.44717C17.7214 4.52607 16.5857 4.23779 15.3036 4.17451C13.9821 4.10068 10.0214 4.10068 8.69999 4.17451C7.42142 4.23428 6.28571 4.52256 5.34642 5.44365C4.40714 6.36474 4.11785 7.48271 4.05356 8.74482C3.97856 10.0456 3.97856 13.9444 4.05356 15.2452C4.11428 16.5073 4.40714 17.6253 5.34642 18.5464C6.28571 19.4675 7.41785 19.7558 8.69999 19.819C10.0214 19.8929 13.9821 19.8929 15.3036 19.819C16.5857 19.7593 17.7214 19.471 18.6571 18.5464C19.5928 17.6253 19.8857 16.5073 19.95 15.2452C20.025 13.9444 20.025 10.0491 19.95 8.74834ZM18.2428 16.6409C17.9643 17.33 17.425 17.8608 16.7214 18.1386C15.6678 18.5499 13.1678 18.455 12.0036 18.455C10.8393 18.455 8.3357 18.5464 7.2857 18.1386C6.58571 17.8643 6.04642 17.3335 5.76428 16.6409C5.34642 15.6038 5.44285 13.1429 5.44285 11.9968C5.44285 10.8507 5.34999 8.38623 5.76428 7.35263C6.04285 6.66357 6.58213 6.13271 7.2857 5.85498C8.33928 5.44365 10.8393 5.53857 12.0036 5.53857C13.1678 5.53857 15.6714 5.44717 16.7214 5.85498C17.4214 6.1292 17.9607 6.66006 18.2428 7.35263C18.6607 8.38974 18.5643 10.8507 18.5643 11.9968C18.5643 13.1429 18.6607 15.6073 18.2428 16.6409Z" fill="#FF0080"/>
</g>
<defs>
<clipPath id="clip0_191_51">
<rect width="16" height="18" fill="white" transform="translate(4 3)"/>
</clipPath>
</defs>
</svg>
